<svg version="1.1" viewBox="0 0 800 342" xmlns="http://www.w3.org/2000/svg">
<path d="m475.03 86.96c20.01 13.01 36.56 31.07 48.05 51.97 20.04 36.24 23.65 80.8 9.5 119.73-1.07 2.79-1.94 5.61-2.38 8.57-3.28-1.93-6.37-2.76-10.2-2.69-13.81 0.02-27.63-0.03-41.44 0.03-0.06-11.5-0.12-23-0.06-34.51-10.76-8.54-21.21-17.08-32.04-25.6-0.81-4.02 0.24-8.41-0.55-12.47-0.52-2.22-2.36-4.78-4.91-4.61-12.31-0.11-24.64-0.09-36.95 0-3.13-0.16-4.93 2.65-5.25 5.45-0.29 3.88-0.02 7.8-0.08 11.7-3.91 3.16-7.71 6.43-11.57 9.65-2.07 1.74-3.81 3.66-6.37 4.72-0.03-1.78-0.04-3.57-0.05-5.36-2.83 0.02-5.67 0.02-8.5 0.02-0.05-17.85-0.02-35.71-0.02-53.56 0.12-6.93-0.14-14.8-2.91-21.26-1.68-4.09-4.54-7.6-6.1-11.68-0.9-2.27-0.87-4.76-0.99-7.16 1.21-0.68 3.67-1 3.27-2.88 0.53-1.79-2.47-2.34-3.63-3.05-0.05-0.76-0.1-1.51-0.15-2.27 0.59-0.84 1.17-1.67 1.76-2.51-0.01-8.77 0.09-17.55-0.03-26.31 0.09-1.61-1-2.58-2.57-2.45-11.17-0.11-22.36 0.04-33.53-0.07 3.17-2.46 6.75-4.06 10.41-5.61 14.63-6.07 30.4-10.28 46.25-11.18 31.78-2.65 64.46 5.77 91.04 23.39z" fill="#e7717d"/>
<path d="m300.55 80.52c8.91-0.3 17.86 0 26.78-0.16 11.17 0.11 22.36-0.04 33.53 0.07 1.57-0.13 2.66 0.84 2.57 2.45 0.12 8.76 0.02 17.54 0.03 26.31-0.59 0.84-1.17 1.67-1.76 2.51 0.05 0.76 0.1 1.51 0.15 2.27 1.16 0.71 4.16 1.26 3.63 3.05 0.4 1.88-2.06 2.2-3.27 2.88 0.12 2.4 0.09 4.89 0.99 7.16 1.56 4.08 4.42 7.59 6.1 11.68 2.77 6.46 3.03 14.33 2.91 21.26 0 17.85-0.03 35.71 0.02 53.56 2.83 0 5.67 0 8.5-0.02 0.01 1.79 0.02 3.58 0.05 5.36 2.56-1.06 4.3-2.98 6.37-4.72 3.86-3.22 7.66-6.49 11.57-9.65 0.06-3.9-0.21-7.82 0.08-11.7 0.32-2.8 2.12-5.61 5.25-5.45 12.31-0.09 24.64-0.11 36.95 0 2.55-0.17 4.39 2.39 4.91 4.61 0.79 4.06-0.26 8.45 0.55 12.47 10.83 8.52 21.28 17.06 32.04 25.6-0.06 11.51 0 23.01 0.06 34.51 13.81-0.06 27.63-0.01 41.44-0.03 3.83-0.07 6.92 0.76 10.2 2.69 4.46 2.59 6.79 6.7 8.59 11.36 4.55-1.58 10.28-1.78 13.64 2.23 0.35 1.43 0.37 2.92 0.06 4.45-3.11 4.13-9.31 4.02-13.7 2.31-1.47 4.17-3.7 7.36-6.73 10.53 4.33 0.19 8.69-0.11 13.01 0.19 3.27-0.12 3.56 5.76 0.59 6.32-2.83 0.43-5.8 0.2-8.66 0.23-96.68-0.01-193.35 0.01-290.03 0-1.81-0.09-3.21 0.04-4.33-1.61-0.28-1.95-0.59-3.74 1.46-4.79 4.53-0.61 9.23-0.08 13.81-0.31-0.76-1.62-2.06-2.54-3.29-3.78-4.54-4.56-7.18-10.91-7.08-17.36 0.02-13.01 0.01-26.01 0.01-39.02-0.06-4.01 1.15-7.81 2.77-11.43 4.25-7.12 11.18-12.25 19.61-12.9 6.85-0.25 13.74 0.01 20.6-0.11 0.04-20.85 0.01-41.7 0.01-62.54 0.07-6.01 2.1-12.08 5.18-17.21 2.91-4.41 4.68-8.75 4.9-14.1-1.02-0.16-2.04-0.31-3.06-0.46-0.18-1.5-0.17-2.87 0.06-4.36 1.02-0.19 2.03-0.39 3.04-0.59-2.73-10.81-1.45-21.09-1.92-32.12 0.59-0.55 1.2-1.1 1.81-1.64z" fill="#2a2a2a"/>
<path d="m298.74 82.16c0.47 11.03-0.81 21.31 1.92 32.12-1.01 0.2-2.02 0.4-3.04 0.59-0.23 1.49-0.24 2.86-0.06 4.36 1.02 0.15 2.04 0.3 3.06 0.46-0.22 5.35-1.99 9.69-4.9 14.1-3.08 5.13-5.11 11.2-5.18 17.21 0 20.84 0.03 41.69-0.01 62.54-6.86 0.12-13.75-0.14-20.6 0.11-8.43 0.65-15.36 5.78-19.61 12.9-1.62-9.74-1.66-19.75-0.67-29.56 2.66-35.97 19.82-70.64 46.28-95.07 1.1-1.2 2.3-2.11 2.36-3.88 0.36-5.31-0.34-10.57 0.45-15.88z" fill="#e7717d"/>
<path d="m310.71 86.53c0.15 6.01 0.1 12.03 0.05 18.04-1.78-0.01-3.57-0.02-5.35-0.02 0-5.98-0.17-11.98 0.08-17.95 1.75-0.06 3.48-0.06 5.22-0.07z" fill="#ad6050"/>
<path d="m316.21 86.65c2.04-0.05 4.09-0.07 6.13-0.09 0.1 5.95 0.01 11.9 0.08 17.85-2.06 0.1-4.12 0.16-6.18 0.2-0.07-5.99-0.03-11.98-0.03-17.96z" fill="#ad6050"/>
<path d="m327.58 86.56c1.97-0.01 3.94-0.02 5.9-0.03 0.3 6 0.13 12.03 0.12 18.03-2.03 0-4.07-0.01-6.1-0.02-0.02-5.99-0.13-11.99 0.08-17.98z" fill="#ad6050"/>
<path d="m338.79 86.64c2.23-0.06 4.47-0.11 6.7-0.18 0.45 6 0.17 12.07 0.19 18.09-2.25 0.01-4.49 0.02-6.74 0.04-0.39-5.96-0.14-11.98-0.15-17.95z" fill="#ad6050"/>
<path d="m351.44 86.4c1.95 0.1 3.9 0.18 5.85 0.25 0.1 5.89-0.03 11.78 0.11 17.67-2.13 0.18-4.26 0.29-6.4 0.32-0.18-5.92-0.93-12.47 0.44-18.24z" fill="#ad6050"/>
<path d="m306.66 110.74c16.17-0.1 32.34-0.02 48.51-0.04 0.53 0.83 1.05 1.67 1.58 2.5-1.58 1.97-3.52 1.26-5.75 1.42-14.9-0.14-29.81 0.13-44.71-0.14 0.12-1.25 0.24-2.5 0.37-3.74z" fill="#979797"/>
<path d="m306.72 119.56c16.26-0.14 32.52-0.03 48.78-0.05 0.41 2.88 0.77 5.83 1.59 8.64 1.72 5.72 5.75 9.76 7.48 15.55 1.09 3.38 1.17 6.79 1.16 10.3-0.03 19.85 0.02 39.7-0.02 59.55-3.52 0.05-7.04 0.04-10.56-0.1 7.5-13.15 7.43-29.96-0.88-42.71-4.84-7.29-12.36-12.54-21.23-13.19-7.21-0.44-14.63 2.69-19.64 7.85-8.67 8.29-11.89 21.06-10.5 32.72 0.58 5.53 2.69 10.36 4.99 15.34-3.76 0.1-7.52 0.08-11.28 0.02-0.05-20.16 0.02-40.32-0.03-60.48-0.02-3.19 0.52-6.33 1.39-9.39 1.27-4.28 3.88-7.83 5.9-11.69 1.97-3.88 2.69-8.04 2.85-12.36z" fill="#fee"/>
<path d="m344.34 139.62c0.12 1.27 0.24 2.54 0.36 3.81-3.21 1.54-6.25 0.9-9.7 1.01-4.7-0.12-9.45 0.22-14.14-0.16-2.39-0.89-1.37-2.73-1.24-4.65 8.13-0.42 16.58-0.36 24.72-0.01z" fill="#3f3d3d"/>
<path d="m332.99 163.71c6.82 0.79 12.91 4.96 16.36 10.87 7.49 11.9 6.78 27.91-1.92 38.98-10.57-0.1-21.15-0.04-31.73-0.03-9.53-12.4-9.37-30.97 1.05-42.79 4.01-4.45 10.17-7.47 16.24-7.03z" fill="#e05050"/>
<path d="m323.77 178.29c5-0.01 9.99 0 14.99-0.01-0.01 1.41-0.03 2.82-0.04 4.23-5.05-0.07-10.06 0.14-15.1-0.17l0.15-4.05z" fill="#2b2a2a"/>
<path d="m319.68 188.29c7.96 0 15.92-0.01 23.88 0.01-0.01 1.42-0.03 2.85-0.04 4.27-7.89 0.06-15.78-0.07-23.66 0.08-0.04-1.45-0.14-2.9-0.18-4.36z" fill="#2b2a2a"/>
<path d="m404.48 192.69c1.07-0.11 2.14-0.19 3.21-0.24 0.05 3.27 0.05 6.54 0.01 9.81-1.07 0.03-2.15 0.05-3.22 0.08-0.1-3.2-0.3-6.46 0-9.65z" fill="#d4d4d4"/>
<path d="m410.41 192.62c0.98-0.07 1.96-0.13 2.94-0.15-0.02 3.28-0.02 6.56-0.03 9.84l-2.96 0.02c-0.02-3.22-0.25-6.5 0.05-9.71z" fill="#cdcdcd"/>
<path d="m415.6 192.63c1-0.09 2.01-0.15 3.02-0.18 0.04 3.29 0.03 6.58-0.03 9.87h-3.03c-0.01-3.22-0.19-6.47 0.04-9.69z" fill="#c7c7c7"/>
<path d="m421.26 192.67c0.82-0.11 1.64-0.19 2.46-0.26 0.06 3.35 0.06 6.69-0.01 10.04-1.95-0.15-2.84-0.08-2.89-2.35-0.04-2.4-0.33-5.13 0.44-7.43z" fill="#d8d8d8"/>
<path d="m426.48 192.63c0.98-0.07 1.96-0.12 2.95-0.15 0.01 3.27 0 6.54-0.04 9.81l-2.93 0.07c-0.06-3.23-0.25-6.51 0.02-9.73z" fill="#cdcdcd"/>
<path d="m431.61 192.66c0.98-0.1 1.96-0.18 2.94-0.23 0.06 3.36 0.05 6.72-0.09 10.08l-2.76-0.33c-0.31-3.12-0.3-6.39-0.09-9.52z" fill="#cecece"/>
<path d="m437.43 192.58c1.06-0.04 2.12-0.06 3.18-0.05 0.02 3.19 0.26 6.48-0.18 9.63l-3.04 0.35c-0.65-3.38-1.07-6.58 0.04-9.93z" fill="#d3d3d3"/>
<path d="m401.96 207.45c12.79 0.26 25.59-0.08 38.37 0.21-8.31 7.6-17.37 14.42-25.88 21.81-1.69 1.78-4.23 1.14-6.45 1.3-11.44-0.18-22.9 0.22-34.33-0.22 8.36-7.29 16.99-14.25 25.36-21.52 0.89-0.66 1.72-1.71 2.93-1.58z" fill="#afafaf"/>
<path d="m445.13 210.14c1.67-0.05 2.56 1.03 3.81 1.95 6.96 5.86 14.28 11.33 21.16 17.29-16.05 0.21-32.2 0.28-48.25-0.01 6.11-5.41 12.55-10.45 18.76-15.75 1.45-1.2 2.9-2.51 4.52-3.48z" fill="#d8d8d8"/>
<path d="m280.86 219.76c-3 3.45-5.7 6.76-6.9 11.28-0.85 3.58-1.2 7.29-1.24 10.96 0.04 9.33 0.04 18.67 0.01 28-0.09 4.62 0.13 9.46 1.15 13.98 1.15 4.6 3.89 7.97 6.94 11.44-3.84 0.11-7.82 0.35-11.64-0.13-5.04-0.86-9.7-3.71-12.47-8.07-2.64-3.97-3.08-8.56-3.08-13.22 0.08-11.67-0.03-23.35 0.04-35.01 0.07-6.43 2.68-12.59 8.21-16.13 5.44-3.78 12.69-3.26 18.98-3.1z" fill="#dd9f38"/>
<path d="m300 219.64c24.9 0.06 49.8-0.02 74.7 0.04-0.35 2.58-3.8 3.73-5.02 6.03-3.8 5.08-1.36 13.06-1.99 19.22-3.24-0.84-6.36-1.69-9.75-1.37-4.45 0.22-8.12 2.42-11.24 5.44l-0.69-2.23c-3.25-0.26-6.54-0.08-9.79-0.11 0.37 1.93 0.76 3.85 1.19 5.76-3.34 1.27-6.59 2.25-9.48 4.45-8.46 5.84-12.6 17.47-8.9 27.21 1.47 4.63 4.5 8.07 7.97 11.33-4.73 0.23-9.46 0.16-14.2 0.1 1.54-3.25 3.62-6.87 3.77-10.51 0.32-5.72-1.53-11.65-3.8-16.83-2.48-5.22-5.73-10.8-11.42-12.97-4.58-1.84-9.22 0.41-12.4 3.75-5.21 5.41-7 11.77-9.46 18.62-0.33-10.85-0.08-21.72-0.16-32.57 0.06-3.73-0.21-7.58 0.33-11.28 0.99-4.53 4.09-8.48 7.89-11.04 3.69-2.44 8.12-3.03 12.45-3.04z" fill="#ffc970"/>
<path d="m351.64 223.76c2.55-0.8 6.4-0.94 8.37 1.23 4.06 3.09 3.34 10.37-1.22 12.65-3.67 1.97-8.47 0.8-10.55-2.89-2.08-4.2-0.74-8.73 3.4-10.99z" fill="#2c2b2a"/>
<path d="m298.45 224.55c5.46-1.19 11.31 0.94 14.31 5.74 2.29 3.18 2.19 7.07 1.68 10.8-0.83 3.58-3.64 6.76-6.86 8.46-6.66 2.95-14.85 0.78-18-6.11-3.75-7.6 0.57-16.98 8.87-18.89z" fill="#2a2a2a"/>
<path d="m353.32 226.37c3.25-0.91 6.69 1 6.35 4.63 0.22 4.13-5.26 6.2-8 3.28-2.52-2.25-1.65-6.89 1.65-7.91z" fill="#dd9f38"/>
<path d="m300.12 228.74c4.28-0.83 8.56 2.3 9.9 6.29 1.38 4.25-1.1 9.12-5.22 10.72-4.36 1.96-9.34-0.47-11.32-4.6-0.53-2.36-0.49-4.91 0.01-7.27 1.29-2.56 3.8-4.57 6.63-5.14z" fill="#dd9f38"/>
<path d="m373.26 235.85c11.62-0.32 23.26-0.07 34.87-0.14 0.89-0.09 1.6 0.21 2.15 0.9 0.2 4.66-0.07 9.34 0.12 14.01-4.94 1.07-10.29 0.41-15.4 0.57-7.23-0.11-14.49 0.26-21.7-0.21-0.02-5.05 0.02-10.09-0.04-15.13z" fill="#afafaf"/>
<path d="m416.65 235.72c18.14-0.05 36.34-0.02 54.48-0.02 2.08-0.18 2.16 1.67 2.13 3.24 0.02 3.83-0.1 7.65 0.07 11.48-1.44 0.5-2.76 0.88-4.31 0.81-14-0.05-28.02-0.01-42.02-0.03-3.58-0.04-6.95 0.34-10.48-0.53 0.18-4.99 0.06-9.96 0.13-14.95z" fill="#d8d8d8"/>
<path d="m339.05 248.68c1.57 0.11 3.14 0.23 4.7 0.34-0.3 1.6-0.6 3.19-0.91 4.79-1.08-0.12-2.15-0.26-3.22-0.41-0.23-1.57-0.39-3.14-0.57-4.72z" fill="#4e9322"/>
<path d="m358.02 248.92c3.6-0.64 6.47 0.9 9.62 2.34 0.04 7.01 0.2 14.04-0.1 21.05-0.7 0.16-1.39 0.32-2.08 0.48-1.16-4.28-2.59-8.32-5.54-11.73-2.67-3.33-6.19-5.42-9.98-7.24 1.41-3.01 5.04-4.31 8.08-4.9z" fill="#dd9f38"/>
<path d="m472.63 256.44c0.65 2.79 1.03 4.99-0.18 7.72-7.59 0.31-13.28 4.78-16.75 11.3-13.02 0.03-26.05 0.07-39.07-0.03-0.02-6.3-0.02-12.6 0.01-18.9 18.66-0.15 37.33 0.04 55.99-0.09z" fill="#f97d7d"/>
<path d="m336.12 256.93c0.61 3.35 0.12 5.56-3.4 6.57-0.03-3.15 0.03-5.47 3.4-6.57z" fill="#5b9d46"/>
<path d="m340.58 257.54c0.67-0.18 1.34-0.34 2.02-0.49 0.04 1.9 0.06 3.79 0.07 5.68-0.74-0.04-1.48-0.08-2.23-0.11 0-1.69-0.04-3.4 0.14-5.08z" fill="#6dc351"/>
<path d="m373.39 256.46c12.3 0.07 24.61-0.06 36.91 0.07 0.06 6.3 0.03 12.59 0.02 18.89-12.33 0.14-24.66 0.04-36.99 0.05-0.04-6.33-0.12-12.68 0.06-19.01z" fill="#e05050"/>
<path d="m346.58 257.48c3-0.3 4.39 3.22 3.61 5.64-2.61 1.39-3.69-3.94-3.61-5.64z" fill="#5fa748"/>
<path d="m297.99 260.49c4.75 1.68 7.27 6.08 9.27 10.41 1.58 3.82 2.98 7.95 3.22 12.09 0.26 5.53-3.59 10.98-8.91 12.51-2.6 0.39-5.46 0.46-8.03-0.17-3.62-1.38-6.83-4.79-7.86-8.55-1.31-5.35 0.94-11.37 3.01-16.28 1.94-4.14 4.63-8.63 9.3-10.01z" fill="#e7e7e7"/>
<path d="m390.74 260.51c0.04 0.99 0.08 1.97 0.11 2.95-4.44 0.04-8.89 0.04-13.33-0.02l0.25-2.71c4.28-0.45 8.66-0.1 12.97-0.22z" fill="#2b2a2a"/>
<path d="m328.4 262.16c0.81 1.31 1.58 2.71 2.58 3.89 2.24 1.53 4.62 0.27 6.8-0.63 3.09 1.78 4.3 1.78 7.46 0.16 1.55 0.63 3.11 1.32 4.72 1.75 2.74-0.82 3.44-3.11 4.92-5.27 3.47 4.09 6.1 8.36 5.88 13.94 0.56 8.44-5.23 15.97-12.99 18.75-8.35 2.9-17.91-0.62-22.49-8.12-4.3-6.74-3.84-15.86 1.15-22.12 0.65-0.79 1.31-1.57 1.97-2.35z" fill="#e05050"/>
<path d="m470.56 268.85c8.52-1.74 17.18 5.44 16.99 14.15 0.21 7.54-6 14.22-13.55 14.46-6.98 0.56-13.47-4.59-14.85-11.39-1.82-7.78 3.63-15.72 11.41-17.22z" fill="#ffa0a0"/>
<path d="m377.59 269.34c7.08-0.05 14.16-0.02 21.24-0.03-0.02 1.01-0.04 2.02-0.06 3.04-6.3 0-12.6 0.04-18.9 0.02-2.18 0.17-2.26-1.32-2.28-3.03z" fill="#2a2a2a"/>
<path d="m486.23 268.88c7.16-0.14 14.38-0.24 21.54 0.08-1.34 2.51-3.39 1.61-5.77 1.83-4.88-0.18-9.85 0.26-14.7-0.23l-1.07-1.68z" fill="#884c4c"/>
<path d="m511.84 269.43c3.33-0.44 6.82-0.22 10.18-0.14 4.37 0.11 8.56 3.18 10.71 6.87 3.15 5.45 2.13 12.76-2.54 17.03-3.64 3.68-8.29 3.99-13.19 4.08-10.06-0.09-20.12 0.07-30.18-0.09 2.12-3.77 4.58-6.93 5.25-11.36 0.94-4.27-0.6-7.63-1.88-11.59 5.53-0.23 11.15 0.29 16.65-0.25 2.83-0.47 3.43-2.54 5-4.55z" fill="#cc6b6b"/>
<path d="m294.44 274.77c2.89-1.48 5.6-1.21 8.32 0.44 4.28 2.42 5.17 8.95 2.07 12.6-3.17 4.1-10.44 4.09-13.42-0.29-3.42-4.25-1.62-10.32 3.03-12.75z" fill="#2a2a2a"/>
<path d="m296.99 277.69c5.05-1.17 8.03 5.44 4.03 8.51-3.06 2.84-8.15-0.36-7.6-4.25-0.09-1.86 1.97-3.63 3.57-4.26z" fill="#d3c400"/>
<path d="m367.63 278.14c0.13 5.8 0.08 11.61 0.05 17.42-3.77 0.01-7.53-0.01-11.29-0.05 2.54-2.66 4.98-5.15 6.63-8.5 1.35-2.68 1.81-5.38 2.72-8.22 0.62-0.22 1.26-0.44 1.89-0.65z" fill="#ffc970"/>
<path d="m471.68 279.21c0.81 2.74-1.71 3.63-3.48 5.06-1.38 0.87-3.64 2.45-3.93-0.36 1.92-2.1 4.53-4.21 7.41-4.7z" fill="#6b4b4b"/>
<path d="m479.01 278.38 1.85 1.57c-3.52 2.83-7.26 5.39-10.97 7.96-1.09 0.87-2.18 0.79-3.5 0.92 0.11-0.66 0.21-1.33 0.31-1.99 4.04-2.89 8.04-5.94 12.31-8.46z" fill="#5f4545"/>
<path d="m373.38 281.36c1.49-0.69 3.01-0.6 4.61-0.63 7 0.07 14.01 0.02 21.01 0.04 3.9 0.05 7.58-0.4 11.4 0.69-0.11 4.67-0.07 9.33-0.06 14-1.02 0.08-2.05 0.16-3.07 0.24-0.05-2.79 0.45-5.16-1.45-7.51-4.38-5.26-14.23-5.29-18.73-0.17-2.03 2.37-1.45 4.75-1.46 7.6-4.11 0-8.21 0-12.32-0.02 0.06-4.74-0.19-9.51 0.07-14.24z" fill="#afafaf"/>
<path d="m421 280.72c9.33 0.05 18.66 0.05 27.99-0.01 1.84-0.04 3.6 0.28 5.37 0.71-0.19 5.87 1.03 9.43 4.42 14.12-14.05 0.17-28.12 0.12-42.16 0.03-0.02-4.73 0.08-9.43-0.11-14.16 1.5-0.42 2.91-0.77 4.49-0.69z" fill="#d8d8d8"/>
<path d="m541.18 282.18c2.8-0.61 4.63-0.43 7.28 0.71-1.46 1.47-7.83 2.81-7.28-0.71z" fill="#9a5555"/>
<path d="m393.3 289.39c2.98-1.23 7.14-0.5 9.25 2.04 0.12 1.38 0.31 2.27-0.99 3.14-2.38 1.65-5.55 2.15-8.28 1.04-1.61-0.67-3.38-1.39-3.04-3.49-0.07-1.44 1.93-2.31 3.06-2.73z" fill="#5b962d"/>
<path d="m224.4 298.39c2.95-0.34 6.21-0.48 9.11 0.15 2.49 1.59 1.74 3.6 0.73 5.89-3.18 0.44-6.66 0.73-9.84 0.18-2.79-0.46-2.77-5.75 0-6.22z" fill="#2a2a2a"/>
<path d="m567 298.18c3.16 0.07 6.45-0.26 9.57 0.25 2.58 0.88 2.64 5.18 0.08 6.12-2.47 0.5-5.13 0.28-7.65 0.31-4.5-0.11-8.69 0.34-13.14-0.5-0.39-1.05-0.78-2.09-1.19-3.13 0.43-0.84 0.86-1.68 1.28-2.52 3.48-0.91 7.45-0.43 11.05-0.53z" fill="#2a2a2a"/>
</svg>
