<svg aria-hidden="true" focusable="false" data-prefix="fad" data-icon="user-circle" class="svg-inline--fa fa-user-circle fa-w-16" role="img" xmlns="http://www.w3.org/2000/svg" viewBox="0 0 496 512"><g class="fa-group"><path class="fa-primary" fill="#ffffff" d="M248,280a88,88,0,1,0-88-88A88,88,0,0,0,248,280Zm48,40a24.76,24.76,0,0,0-7.1,1.1,124.67,124.67,0,0,1-81.8,0A24.76,24.76,0,0,0,200,320c-42.9,0-79.7,24.4-98.5,59.8,68.07,80.91,188.84,91.32,269.75,23.25A192,192,0,0,0,394.5,379.8C375.7,344.4,338.9,320,296,320Z"></path></g></svg>
